<svg xmlns="http://www.w3.org/2000/svg" width="465" height="465" viewBox="0 0 465 465" fill="none"><path d="M312.48 96.72C335.032 106.718 351.075 130.898 373.628 155.775C396.18 180.653 425.01 206.693 421.057 230.175C417.105 253.89 380.37 275.28 358.515 301.32C336.66 327.593 329.917 358.515 311.55 381.997C292.95 405.48 262.725 421.522 237.382 413.152C212.04 404.55 191.58 371.768 170.422 349.68C149.265 327.825 127.177 316.898 100.207 299.228C73.47 281.558 41.6175 256.913 35.5725 229.013C29.5275 201.113 49.0575 169.493 70.215 141.825C91.3725 113.925 113.925 89.9775 141.127 82.77C168.33 75.33 200.415 84.8625 230.872 87.6525C261.33 90.4425 290.16 86.7225 312.48 96.72Z" fill="#377DFF" fill-opacity="0.1"></path></svg>