<svg xmlns="http://www.w3.org/2000/svg" width="258" height="268" viewBox="0 0 258 268" fill="none"><path d="M195.056 25.5561C216.36 35.1971 238.752 45.6156 249.015 63.1871C259.278 80.7586 257.412 105.328 257.101 129.897C256.79 154.31 258.189 178.724 249.948 199.872C241.862 221.02 224.29 239.213 203.142 251.498C182.15 263.782 157.736 270.313 135.5 266.426C113.263 262.383 93.3593 248.077 72.0558 235.792C50.9078 223.663 28.3603 213.556 15.2983 196.295C2.08076 179.035 -1.49574 154.621 0.525755 131.296C2.70276 107.971 10.6333 85.8901 21.0518 64.1201C31.4703 42.1946 44.3768 20.4246 63.5033 9.53958C82.6298 -1.50092 107.976 -1.65642 130.679 2.54208C153.382 6.89608 173.597 15.9151 195.056 25.5561Z" fill="black"></path></svg>