<svg xmlns="http://www.w3.org/2000/svg" width="72" height="72" viewBox="0 0 72 72" fill="none"><rect width="72" height="72" rx="36" fill="#EEF5FF"></rect><path d="M53.5 22.25H52.25V18.5C52.25 17.8125 51.6875 17.25 51 17.25C50.3125 17.25 49.75 17.8125 49.75 18.5V22.25H42.25V18.5C42.25 17.8125 41.6875 17.25 41 17.25C40.3125 17.25 39.75 17.8125 39.75 18.5V22.25H32.25V18.5C32.25 17.8125 31.6875 17.25 31 17.25C30.3125 17.25 29.75 17.8125 29.75 18.5V22.25H22.25V18.5C22.25 17.8125 21.6875 17.25 21 17.25C20.3125 17.25 19.75 17.8125 19.75 18.5V22.25H18.5C17.8125 22.25 17.25 22.8125 17.25 23.5V53.5C17.25 54.1875 17.8125 54.75 18.5 54.75H53.5C54.1875 54.75 54.75 54.1875 54.75 53.5V23.5C54.75 22.8125 54.1875 22.25 53.5 22.25ZM52.25 24.75V29.75H19.75V24.75H52.25ZM19.75 52.25V32.25H52.25V52.25H19.75Z" fill="#377DFF"></path><path d="M38.5 36H37.875C37.1875 36 36.625 36.5625 36.625 37.25C36.625 37.9375 37.1875 38.5 37.875 38.5H38.5C39.1875 38.5 39.75 37.9375 39.75 37.25C39.75 36.5625 39.1875 36 38.5 36Z" fill="#599FFF"></path><path d="M43.5 36H42.875C42.1875 36 41.625 36.5625 41.625 37.25C41.625 37.9375 42.1875 38.5 42.875 38.5H43.5C44.1875 38.5 44.75 37.9375 44.75 37.25C44.75 36.5625 44.1875 36 43.5 36Z" fill="#599FFF"></path><path d="M47.875 38.5H48.5C49.1875 38.5 49.75 37.9375 49.75 37.25C49.75 36.5625 49.1875 36 48.5 36H47.875C47.1875 36 46.625 36.5625 46.625 37.25C46.625 37.9375 47.1875 38.5 47.875 38.5Z" fill="#599FFF"></path><path d="M38.5 41H37.875C37.1875 41 36.625 41.5625 36.625 42.25C36.625 42.9375 37.1875 43.5 37.875 43.5H38.5C39.1875 43.5 39.75 42.9375 39.75 42.25C39.75 41.5625 39.1875 41 38.5 41Z" fill="#599FFF"></path><path d="M43.5 41H42.875C42.1875 41 41.625 41.5625 41.625 42.25C41.625 42.9375 42.1875 43.5 42.875 43.5H43.5C44.1875 43.5 44.75 42.9375 44.75 42.25C44.75 41.5625 44.1875 41 43.5 41Z" fill="#599FFF"></path><path d="M48.5 41H47.875C47.1875 41 46.625 41.5625 46.625 42.25C46.625 42.9375 47.1875 43.5 47.875 43.5H48.5C49.1875 43.5 49.75 42.9375 49.75 42.25C49.75 41.5625 49.1875 41 48.5 41Z" fill="#599FFF"></path><path d="M38.5 46H37.875C37.1875 46 36.625 46.5625 36.625 47.25C36.625 47.9375 37.1875 48.5 37.875 48.5H38.5C39.1875 48.5 39.75 47.9375 39.75 47.25C39.75 46.5625 39.1875 46 38.5 46Z" fill="#599FFF"></path><path d="M43.5 46H42.875C42.1875 46 41.625 46.5625 41.625 47.25C41.625 47.9375 42.1875 48.5 42.875 48.5H43.5C44.1875 48.5 44.75 47.9375 44.75 47.25C44.75 46.5625 44.1875 46 43.5 46Z" fill="#599FFF"></path><path d="M48.5 46H47.875C47.1875 46 46.625 46.5625 46.625 47.25C46.625 47.9375 47.1875 48.5 47.875 48.5H48.5C49.1875 48.5 49.75 47.9375 49.75 47.25C49.75 46.5625 49.1875 46 48.5 46Z" fill="#599FFF"></path><path d="M28.4625 36.0125C27.9875 35.575 27.2625 35.575 26.775 36.0125C26.0125 36.7 22.2375 40.2874 22.2375 43.1374C22.2375 46.2624 24.65 48.8125 27.6125 48.8125C30.575 48.8125 32.9875 46.2624 32.9875 43.1374C32.9875 40.2874 29.2125 36.7 28.45 36.0125H28.4625Z" fill="#599FFF"></path></svg>