<svg xmlns="http://www.w3.org/2000/svg" width="72" height="72" viewBox="0 0 72 72" fill="none"><rect width="72" height="72" rx="36" fill="#EEF5FF"></rect><path d="M36 17.25C25.6625 17.25 17.25 25.6625 17.25 36C17.25 46.3375 25.6625 54.75 36 54.75C46.3375 54.75 54.75 46.3375 54.75 36C54.75 25.6625 46.3375 17.25 36 17.25ZM48.325 46.5625L45.725 43.9625C45.2375 43.475 44.45 43.475 43.9625 43.9625C43.475 44.45 43.475 45.2375 43.9625 45.725L46.5625 48.325C44.0125 50.5125 40.8 51.9125 37.25 52.1875V48.5C37.25 47.8125 36.6875 47.25 36 47.25C35.3125 47.25 34.75 47.8125 34.75 48.5V52.1875C31.2125 51.9125 27.9875 50.5125 25.4375 48.325L28.0375 45.725C28.525 45.2375 28.525 44.45 28.0375 43.9625C27.55 43.475 26.7625 43.475 26.275 43.9625L23.675 46.5625C21.4875 44.0125 20.0875 40.8 19.8125 37.25H23.5C24.1875 37.25 24.75 36.6875 24.75 36C24.75 35.3125 24.1875 34.75 23.5 34.75H19.8125C20.0875 31.2125 21.4875 27.9875 23.675 25.4375L26.275 28.0375C26.525 28.2875 26.8375 28.4 27.1625 28.4C27.4875 28.4 27.8 28.275 28.05 28.0375C28.5375 27.55 28.5375 26.7625 28.05 26.275L25.45 23.675C28 21.4875 31.2125 20.0875 34.7625 19.8125V23.5C34.7625 24.1875 35.325 24.75 36.0125 24.75C36.7 24.75 37.2625 24.1875 37.2625 23.5V19.8125C40.8 20.0875 44.025 21.4875 46.575 23.675L43.975 26.275C43.4875 26.7625 43.4875 27.55 43.975 28.0375C44.225 28.2875 44.5375 28.4 44.8625 28.4C45.1875 28.4 45.5 28.275 45.75 28.0375L48.35 25.4375C50.5375 27.9875 51.9375 31.2 52.2125 34.75H48.525C47.8375 34.75 47.275 35.3125 47.275 36C47.275 36.6875 47.8375 37.25 48.525 37.25H52.2125C51.9375 40.7875 50.5375 44.0125 48.35 46.5625H48.325Z" fill="#377DFF"></path><path d="M33.8125 36.1C33.8125 37.425 34.8 38.5 36 38.5C37.2 38.5 38.1875 37.425 38.1875 36.1C38.1875 35.35 37.0875 33.8875 36 32.7375C34.9125 33.8875 33.8125 35.35 33.8125 36.1Z" fill="#599FFF"></path><path d="M36 26C30.4875 26 26 30.4875 26 36C26 41.5125 30.4875 46 36 46C41.5125 46 46 41.5125 46 36C46 30.4875 41.5125 26 36 26ZM36 41C33.4125 41 31.3125 38.8 31.3125 36.1C31.3125 33.65 34.525 30.65 35.1625 30.0625C35.6375 29.6375 36.3625 29.6375 36.8375 30.0625C37.475 30.6375 40.6875 33.65 40.6875 36.1C40.6875 38.8 38.5875 41 36 41Z" fill="#599FFF"></path></svg>