<svg xmlns="http://www.w3.org/2000/svg" width="72" height="72" viewBox="0 0 72 72" fill="none"><rect width="72" height="72" rx="36" fill="#EEF5FF"></rect><path d="M35.375 47.25H31.625C30.9375 47.25 30.375 47.8125 30.375 48.5C30.375 49.1875 30.9375 49.75 31.625 49.75H35.375C36.0625 49.75 36.625 49.1875 36.625 48.5C36.625 47.8125 36.0625 47.25 35.375 47.25Z" fill="#377DFF"></path><path d="M40.375 41.625H26.625C25.9375 41.625 25.375 42.1875 25.375 42.875C25.375 43.5625 25.9375 44.125 26.625 44.125H40.375C41.0625 44.125 41.625 43.5625 41.625 42.875C41.625 42.1875 41.0625 41.625 40.375 41.625Z" fill="#377DFF"></path><path d="M40.375 36H31.625C30.9375 36 30.375 36.5625 30.375 37.25C30.375 37.9375 30.9375 38.5 31.625 38.5H40.375C41.0625 38.5 41.625 37.9375 41.625 37.25C41.625 36.5625 41.0625 36 40.375 36Z" fill="#377DFF"></path><path d="M26.625 38.5H27.25C27.9375 38.5 28.5 37.9375 28.5 37.25C28.5 36.5625 27.9375 36 27.25 36H26.625C25.9375 36 25.375 36.5625 25.375 37.25C25.375 37.9375 25.9375 38.5 26.625 38.5Z" fill="#377DFF"></path><path d="M40.375 47.25H39.75C39.0625 47.25 38.5 47.8125 38.5 48.5C38.5 49.1875 39.0625 49.75 39.75 49.75H40.375C41.0625 49.75 41.625 49.1875 41.625 48.5C41.625 47.8125 41.0625 47.25 40.375 47.25Z" fill="#377DFF"></path><path d="M27.25 47.25H26.625C25.9375 47.25 25.375 47.8125 25.375 48.5C25.375 49.1875 25.9375 49.75 26.625 49.75H27.25C27.9375 49.75 28.5 49.1875 28.5 48.5C28.5 47.8125 27.9375 47.25 27.25 47.25Z" fill="#377DFF"></path><path d="M45.6375 30.1125L38.1375 22.6125C37.9 22.375 37.5875 22.25 37.25 22.25H22.25C21.5625 22.25 21 22.8125 21 23.5V53.5C21 54.1875 21.5625 54.75 22.25 54.75H44.75C45.4375 54.75 46 54.1875 46 53.5V31C46 30.6625 45.8625 30.35 45.6375 30.1125ZM38.5 26.5125L41.7375 29.75H39.125C38.775 29.75 38.5 29.475 38.5 29.125V26.5125ZM23.5 52.25V24.75H36V29.125C36 30.85 37.4 32.25 39.125 32.25H43.5V52.25H23.5Z" fill="#377DFF"></path><path d="M49.75 17.25H27.25C26.5625 17.25 26 17.8125 26 18.5V19.75H37.25C38.25 19.75 39.1875 20.1375 39.9 20.85L47.4 28.35C48.1125 29.0625 48.5 30 48.5 31V49.75H49.75C50.4375 49.75 51 49.1875 51 48.5V18.5C51 17.8125 50.4375 17.25 49.75 17.25Z" fill="#599FFF"></path></svg>