<svg xmlns="http://www.w3.org/2000/svg" width="72" height="72" viewBox="0 0 72 72" fill="none"><rect width="72" height="72" rx="36" fill="#EEF5FF"></rect><path d="M41 17.25H18.5C17.8125 17.25 17.25 17.8125 17.25 18.5V49.75C17.25 50.4375 17.8125 51 18.5 51H32.25C32.9375 51 33.5 50.4375 33.5 49.75C33.5 49.0625 32.9375 48.5 32.25 48.5H19.75V29.0125L21.3625 30.625C21.6 30.8625 21.9125 30.9875 22.25 30.9875H28.5V33.4875C28.5 34.175 29.0625 34.7375 29.75 34.7375C30.4375 34.7375 31 34.175 31 33.4875V30.9875H37.25C37.5875 30.9875 37.9 30.85 38.1375 30.625L39.75 29.0125V37.25C39.75 37.9375 40.3125 38.5 41 38.5C41.6875 38.5 42.25 37.9375 42.25 37.25V18.5C42.25 17.8125 41.6875 17.25 41 17.25ZM36.7375 28.5H31V26C31 25.3125 30.4375 24.75 29.75 24.75C29.0625 24.75 28.5 25.3125 28.5 26V28.5H22.7625L19.75 25.4875V19.75H39.75V25.4875L36.7375 28.5Z" fill="#377DFF"></path><path d="M27.25 41H22.25C21.5625 41 21 41.5625 21 42.25C21 42.9375 21.5625 43.5 22.25 43.5H27.25C27.9375 43.5 28.5 42.9375 28.5 42.25C28.5 41.5625 27.9375 41 27.25 41Z" fill="#377DFF"></path><path d="M27.25 44.75H22.25C21.5625 44.75 21 45.3125 21 46C21 46.6875 21.5625 47.25 22.25 47.25H27.25C27.9375 47.25 28.5 46.6875 28.5 46C28.5 45.3125 27.9375 44.75 27.25 44.75Z" fill="#377DFF"></path><path d="M34.75 39.75V54.75H54.75V39.75H34.75ZM51.1375 46.05L45.5125 50.425C45.2875 50.6 45.0125 50.6875 44.75 50.6875C44.4875 50.6875 44.2125 50.6 43.9875 50.425L38.3625 46.05C37.8125 45.625 37.725 44.8375 38.1375 44.3C38.5625 43.75 39.35 43.65 39.8875 44.0875L44.75 47.8625L49.6125 44.0875C50.15 43.6625 50.9375 43.7625 51.3625 44.3C51.7875 44.85 51.6875 45.625 51.1375 46.05Z" fill="#599FFF"></path></svg>