<svg xmlns="http://www.w3.org/2000/svg" width="72" height="72" viewBox="0 0 72 72" fill="none"><rect width="72" height="72" rx="36" fill="#EEF5FF"></rect><path d="M53.5 44.75H31C30.3125 44.75 29.75 45.3125 29.75 46V53.5C29.75 54.1875 30.3125 54.75 31 54.75H53.5C54.1875 54.75 54.75 54.1875 54.75 53.5V46C54.75 45.3125 54.1875 44.75 53.5 44.75ZM52.25 52.25H32.25V47.25H34.75V48.5C34.75 49.1875 35.3125 49.75 36 49.75C36.6875 49.75 37.25 49.1875 37.25 48.5V47.25H41V48.5C41 49.1875 41.5625 49.75 42.25 49.75C42.9375 49.75 43.5 49.1875 43.5 48.5V47.25H47.25V48.5C47.25 49.1875 47.8125 49.75 48.5 49.75C49.1875 49.75 49.75 49.1875 49.75 48.5V47.25H52.25V52.25Z" fill="#377DFF"></path><path d="M31 42.25H48.5C49.1875 42.25 49.75 41.6875 49.75 41V24.75C49.75 24.4125 49.6125 24.1 49.3875 23.8625L43.1375 17.6125C42.9 17.375 42.5875 17.25 42.25 17.25H31C30.3125 17.25 29.75 17.8125 29.75 18.5V41C29.75 41.6875 30.3125 42.25 31 42.25ZM43.0875 21.1L45.9 23.9125L43.3875 24.3375C43.1125 24.375 42.925 24.25 42.85 24.1625C42.7625 24.075 42.625 23.9 42.675 23.6125L43.1 21.1H43.0875ZM32.25 19.75H40.775L40.2 23.2C40.0375 24.1875 40.3625 25.2125 41.075 25.925C41.6625 26.5125 42.4625 26.8375 43.2875 26.8375C43.4625 26.8375 43.625 26.825 43.8 26.8L47.25 26.225V39.75H32.25V19.75Z" fill="#377DFF"></path><path d="M37.25 36H36C35.3125 36 34.75 36.5625 34.75 37.25C34.75 37.9375 35.3125 38.5 36 38.5H37.25C37.9375 38.5 38.5 37.9375 38.5 37.25C38.5 36.5625 37.9375 36 37.25 36Z" fill="#377DFF"></path><path d="M43.5 36H42.25C41.5625 36 41 36.5625 41 37.25C41 37.9375 41.5625 38.5 42.25 38.5H43.5C44.1875 38.5 44.75 37.9375 44.75 37.25C44.75 36.5625 44.1875 36 43.5 36Z" fill="#377DFF"></path><path d="M26 17.25H18.5C17.8125 17.25 17.25 17.8125 17.25 18.5V53.5C17.25 54.1875 17.8125 54.75 18.5 54.75H26C26.6875 54.75 27.25 54.1875 27.25 53.5V49.75H24.75C24.0625 49.75 23.5 49.1875 23.5 48.5C23.5 47.8125 24.0625 47.25 24.75 47.25H27.25V41.4125H24.75C24.0625 41.4125 23.5 40.85 23.5 40.1625C23.5 39.475 24.0625 38.9125 24.75 38.9125H27.25V33.075H24.75C24.0625 33.075 23.5 32.5125 23.5 31.825C23.5 31.1375 24.0625 30.575 24.75 30.575H27.25V24.7375H24.75C24.0625 24.7375 23.5 24.175 23.5 23.4875C23.5 22.8 24.0625 22.2375 24.75 22.2375H27.25V18.4875C27.25 17.8 26.6875 17.2375 26 17.2375V17.25Z" fill="#599FFF"></path></svg>