<svg xmlns="http://www.w3.org/2000/svg" width="72" height="72" viewBox="0 0 72 72" fill="none"><rect width="72" height="72" rx="36" fill="#EEF5FF"></rect><path d="M51.2 35.6625C51.025 33.7125 49.4125 32.25 47.4625 32.25H44.75V29.175L47.1125 27.6C47.9875 27.0125 48.5 26.05 48.5 25V20.375C48.5 18.65 47.1 17.25 45.375 17.25H26.625C24.9 17.25 23.5 18.65 23.5 20.375V25C23.5 26.05 24.025 27.0125 24.8875 27.6L27.25 29.175V32.25H24.5375C22.5875 32.25 20.975 33.7125 20.8 35.6625L19.7625 47.1375C19.7 47.825 20.2125 48.4375 20.9 48.5C21.6 48.5625 22.2 48.05 22.2625 47.3625L23.3 35.8875C23.3625 35.2375 23.8875 34.75 24.55 34.75H27.2625V47.25C27.2625 47.9375 27.825 48.5 28.5125 48.5C29.2 48.5 29.7625 47.9375 29.7625 47.25V34.75H42.2625V47.25C42.2625 47.9375 42.825 48.5 43.5125 48.5C44.2 48.5 44.7625 47.9375 44.7625 47.25V34.75H47.475C48.125 34.75 48.6625 35.2375 48.725 35.8875L49.7625 47.3625C49.825 48.0125 50.3625 48.5 51.0125 48.5C51.05 48.5 51.0875 48.5 51.125 48.5C51.8125 48.4375 52.325 47.825 52.2625 47.1375L51.225 35.6625H51.2ZM29.75 32.25V28.5C29.75 28.0875 29.5375 27.6875 29.1875 27.4625L26.275 25.525C26.1 25.4125 26 25.2125 26 25V20.375C26 20.025 26.275 19.75 26.625 19.75H45.375C45.725 19.75 46 20.025 46 20.375V25C46 25.2125 45.9 25.4 45.725 25.525L42.8125 27.4625C42.4625 27.7 42.25 28.0875 42.25 28.5V32.25H29.75Z" fill="#377DFF"></path><path d="M37.25 41H34.75C33.025 41 31.625 42.4 31.625 44.125V47.25C31.625 47.9375 32.1875 48.5 32.875 48.5C33.5625 48.5 34.125 47.9375 34.125 47.25V44.125C34.125 43.775 34.4 43.5 34.75 43.5H37.25C37.6 43.5 37.875 43.775 37.875 44.125V47.25C37.875 47.9375 38.4375 48.5 39.125 48.5C39.8125 48.5 40.375 47.9375 40.375 47.25V44.125C40.375 42.4 38.975 41 37.25 41Z" fill="#377DFF"></path><path d="M17.25 49.75V52.875C17.25 53.9125 18.0875 54.75 19.125 54.75H52.875C53.9125 54.75 54.75 53.9125 54.75 52.875V49.75H17.25Z" fill="#599FFF"></path></svg>