<svg xmlns="http://www.w3.org/2000/svg" width="72" height="72" viewBox="0 0 72 72" fill="none"><rect width="72" height="72" rx="36" fill="#EEF5FF"></rect><path d="M23.5 27.25H22.25C21.5625 27.25 21 27.8125 21 28.5C21 29.1875 21.5625 29.75 22.25 29.75H23.5C24.1875 29.75 24.75 29.1875 24.75 28.5C24.75 27.8125 24.1875 27.25 23.5 27.25Z" fill="#377DFF"></path><path d="M28.5 27.25H27.25C26.5625 27.25 26 27.8125 26 28.5C26 29.1875 26.5625 29.75 27.25 29.75H28.5C29.1875 29.75 29.75 29.1875 29.75 28.5C29.75 27.8125 29.1875 27.25 28.5 27.25Z" fill="#377DFF"></path><path d="M53.5 34.75C54.1875 34.75 54.75 34.1875 54.75 33.5V23.5C54.75 22.8125 54.1875 22.25 53.5 22.25H50.725L49.7125 18.2C49.575 17.6375 49.075 17.25 48.5 17.25H23.5C22.925 17.25 22.425 17.6375 22.2875 18.2L21.275 22.25H18.5C17.8125 22.25 17.25 22.8125 17.25 23.5V33.5C17.25 34.1875 17.8125 34.75 18.5 34.75H19.125V52.25H18.5C17.8125 52.25 17.25 52.8125 17.25 53.5C17.25 54.1875 17.8125 54.75 18.5 54.75H26C26.6875 54.75 27.25 54.1875 27.25 53.5C27.25 52.8125 26.6875 52.25 26 52.25H25.375V34.75H46.625V52.25H46C45.3125 52.25 44.75 52.8125 44.75 53.5C44.75 54.1875 45.3125 54.75 46 54.75H53.5C54.1875 54.75 54.75 54.1875 54.75 53.5C54.75 52.8125 54.1875 52.25 53.5 52.25H52.875V34.75H53.5ZM24.475 19.75H47.525L48.15 22.25H23.85L24.475 19.75ZM19.75 24.75H52.25V32.25H19.75V24.75ZM22.875 52.25H21.625V34.75H22.875V52.25ZM50.375 52.25H49.125V34.75H50.375V52.25Z" fill="#377DFF"></path><path d="M27.875 48.5C27.875 49.1875 28.4375 49.75 29.125 49.75H42.875C43.5625 49.75 44.125 49.1875 44.125 48.5V44.75H27.875V48.5Z" fill="#599FFF"></path><path d="M44.125 37.25H27.875V42.25H44.125V37.25Z" fill="#599FFF"></path></svg>